<?xml version="1.0" standalone="no"?>
<!DOCTYPE svg PUBLIC "-//W3C//DTD SVG 20010904//EN"
 "http://www.w3.org/TR/2001/REC-SVG-20010904/DTD/svg10.dtd">
<svg version="1.0" xmlns="http://www.w3.org/2000/svg"
 width="152.000000pt" height="152.000000pt" viewBox="0 0 152.000000 152.000000"
 preserveAspectRatio="xMidYMid meet">
<metadata>
Created by potrace 1.11, written by Peter Selinger 2001-2013
</metadata>
<g transform="translate(0.000000,152.000000) scale(0.100000,-0.100000)"
fill="#000000" stroke="none">
<path d="M1074 1362 c-5 -4 -53 -59 -105 -122 -52 -63 -102 -124 -111 -135 -9
-11 -56 -67 -104 -125 -185 -224 -207 -250 -210 -247 -2 1 6 32 17 67 39 126
42 185 10 211 -50 41 -141 -23 -330 -231 l-41 -45 64 192 c36 106 69 225 76
265 6 40 13 87 16 104 5 34 -14 58 -37 49 -42 -17 -199 -438 -244 -655 -2 -8
-8 -33 -13 -55 -14 -63 2 -91 55 -99 31 -5 104 52 215 167 103 107 107 110 93
70 -35 -102 -35 -211 1 -237 53 -40 145 25 288 201 l34 42 -5 -78 c-5 -72 -3
-83 21 -128 34 -62 78 -97 143 -112 115 -28 271 36 339 139 39 59 22 71 -53
38 -164 -73 -282 -72 -313 1 -13 33 -7 97 21 206 11 43 14 46 22 28 17 -39 45
-42 137 -16 183 51 248 48 281 -13 18 -34 14 -142 -6 -205 -10 -30 -62 -142
-117 -249 -61 -122 -104 -219 -112 -258 -14 -60 -13 -65 4 -82 11 -11 26 -17
34 -14 14 5 115 170 204 334 22 41 54 116 71 165 105 320 12 502 -238 463 -51
-8 -191 -46 -234 -63 -16 -7 -15 -1 7 44 30 58 88 151 108 172 7 8 25 30 39
49 15 19 36 46 48 59 25 29 27 58 5 89 -15 22 -58 30 -80 14z"/>
</g>
</svg>
